# xmcd CD database file
#
# Track frame offsets:
#	150
#	19882
#	33863
#	50815
#	64809
#	82118
#	98484
#	117818
#	137318
#	153195
#	169224
#
# Disc length: 2481 seconds
#
# Revision: 0
# Processed by: cddbd v1.5.2PL0 Copyright (c) Steve Scherf et al.
# Submitted via: CDex 1.51
#
DISCID=8509af0b
DTITLE=Country Dance Kings - A Tribute to Rascal Flatts
DYEAR=1900
DGENRE=Country
TTITLE0=Fast Cars and Freedom
TTITLE1=Love You Out Loud
TTITLE2=Bless the Broken Road
TTITLE3=This Everyday Love
TTITLE4=I Melt
TTITLE5=Prayin' for Daylight
TTITLE6=Mayberry
TTITLE7=Skin
TTITLE8=What Hurts the Most
TTITLE9=These Days
TTITLE10=I'm Movin' On
EXTD=
EXTT0=
EXTT1=
EXTT2=
EXTT3=
EXTT4=
EXTT5=
EXTT6=
EXTT7=
EXTT8=
EXTT9=
EXTT10=
PLAYORDER=
